<svg xmlns="http://www.w3.org/2000/svg" width="45" height="45" viewBox="0 0 18 18" fill="none">
              <path d="M8.05 12.5L12.2 9.85C12.35 9.75 12.4667 9.625 12.55 9.475C12.6333 9.325 12.675 9.16667 12.675 9C12.675 8.83333 12.6333 8.675 12.55 8.525C12.4667 8.375 12.35 8.25 12.2 8.15L8.05 5.5C7.71667 5.26667 7.375 5.25 7.025 5.45C6.675 5.65 6.5 5.94167 6.5 6.325V11.675C6.5 12.0583 6.675 12.35 7.025 12.55C7.375 12.75 7.71667 12.7333 8.05 12.5V12.5ZM2 18C1.45 18 0.979 17.8043 0.587 17.413C0.195667 17.021 0 16.55 0 16V2C0 1.45 0.195667 0.979 0.587 0.587C0.979 0.195667 1.45 0 2 0H16C16.55 0 17.021 0.195667 17.413 0.587C17.8043 0.979 18 1.45 18 2V16C18 16.55 17.8043 17.021 17.413 17.413C17.021 17.8043 16.55 18 16 18H2Z" fill="#acacac"></path>
            </svg>